<?xml version="1.0" encoding="UTF-8"?>
<svg version="1.1" xmlns="http://www.w3.org/2000/svg" width="80" height="86">
<path d="M0 0 C26.4 0 52.8 0 80 0 C80 28.38 80 56.76 80 86 C53.6 86 27.2 86 0 86 C0 57.62 0 29.24 0 0 Z " fill="#070707" transform="translate(0,0)"/>
<path d="M0 0 C26.4 0 52.8 0 80 0 C80 28.38 80 56.76 80 86 C53.6 86 27.2 86 0 86 C0 57.62 0 29.24 0 0 Z M34 8 C34 8.66 34 9.32 34 10 C33.34 10.103125 32.68 10.20625 32 10.3125 C23.61191954 12.23476844 17.73594239 15.46077465 12 22 C11.20814825 24.14038776 11.20814825 24.14038776 11 26 C10.34 26 9.68 26 9 26 C4.3701619 38.55016829 1.87441801 46.52935264 7.64453125 59.265625 C10.62760065 65.28334426 13.84846312 68.8787705 19 73 C19.33 73.66 19.66 74.32 20 75 C21.67122879 76.09493242 21.67122879 76.09493242 23.6875 77.0625 C24.68330078 77.57490234 24.68330078 77.57490234 25.69921875 78.09765625 C34.74559774 81.64555701 45.88843923 80.85852887 55 78 C55 77.34 55 76.68 55 76 C55.66 75.814375 56.32 75.62875 57 75.4375 C64.59234815 71.79949984 69.86237618 65.78372062 73 58 C73 57.01 73 56.02 73 55 C73.66 55 74.32 55 75 55 C76.44987304 47.93186891 76.44987304 41.06813109 75 34 C74.34 34 73.68 34 73 34 C72.979375 33.195625 72.95875 32.39125 72.9375 31.5625 C70.81147818 23.48361709 64.08160263 17.1512843 57 13 C56.34 13 55.68 13 55 13 C55 12.34 55 11.68 55 11 C47.84466021 8.39241413 41.59762024 7.61000809 34 8 Z " fill="#040404" transform="translate(0,0)"/>
<path d="M0 0 C0.54527344 0.53496094 1.09054688 1.06992187 1.65234375 1.62109375 C1.65234375 2.28109375 1.65234375 2.94109375 1.65234375 3.62109375 C2.31234375 3.62109375 2.97234375 3.62109375 3.65234375 3.62109375 C6.65234375 10.12109375 6.65234375 10.12109375 6.65234375 14.62109375 C7.31234375 14.62109375 7.97234375 14.62109375 8.65234375 14.62109375 C8.65234375 15.28109375 8.65234375 15.94109375 8.65234375 16.62109375 C6.88189697 16.60369141 6.88189697 16.60369141 5.07568359 16.5859375 C0.68062431 16.55331312 -3.71291744 16.5733028 -8.10791016 16.60888672 C-10.00699153 16.61697894 -11.90618915 16.6109554 -13.80517578 16.59033203 C-16.54222113 16.56309062 -19.27482898 16.58724191 -22.01171875 16.62109375 C-22.85570221 16.60167725 -23.69968567 16.58226074 -24.56924438 16.56225586 C-28.24719078 16.6514799 -30.46279924 16.77694976 -33.19287109 19.38140869 C-34.71632231 21.40265932 -36.04837456 23.45098917 -37.34765625 25.62109375 C-39.26953125 28.10546875 -39.26953125 28.10546875 -41.34765625 29.62109375 C-44.80078125 30.01171875 -44.80078125 30.01171875 -48.59765625 29.87109375 C-49.8609375 29.835 -51.12421875 29.79890625 -52.42578125 29.76171875 C-53.39 29.7153125 -54.35421875 29.66890625 -55.34765625 29.62109375 C-55.37464047 27.18351962 -55.39448724 24.7462446 -55.41015625 22.30859375 C-55.41853516 21.61830078 -55.42691406 20.92800781 -55.43554688 20.21679688 C-55.45073531 17.07279125 -55.34958952 14.62689356 -54.34765625 11.62109375 C-53.68765625 11.62109375 -53.02765625 11.62109375 -52.34765625 11.62109375 C-52.26515625 10.91984375 -52.18265625 10.21859375 -52.09765625 9.49609375 C-50.24916052 2.41019347 -45.84544849 -0.98734892 -39.9140625 -4.8984375 C-26.77753425 -12.47643477 -11.25754418 -8.94830435 0 0 Z " fill="#050505" transform="translate(63.34765625,20.37890625)"/>
<path d="M0 0 C7.59762024 -0.38999191 13.84466021 0.39241413 21 3 C21 3.66 21 4.32 21 5 C21.66 5.185625 22.32 5.37125 23 5.5625 C29.37562004 8.6174846 34.68232459 13.76277023 38 20 C38.75 23.375 38.75 23.375 39 26 C39.66 26 40.32 26 41 26 C42.44987304 33.06813109 42.44987304 39.93186891 41 47 C40.34 47 39.68 47 39 47 C38.979375 47.804375 38.95875 48.60875 38.9375 49.4375 C36.81147818 57.51638291 30.08160263 63.8487157 23 68 C22.34 68 21.68 68 21 68 C21 68.66 21 69.32 21 70 C11.92250858 72.84784044 2.00230254 73.42087497 -7 70 C-8.19625 69.5875 -9.3925 69.175 -10.625 68.75 C-14.54059313 66.71969245 -16.36028876 64.4958338 -19 61 C-20.0209375 60.071875 -20.0209375 60.071875 -21.0625 59.125 C-23.82278537 56.09759024 -25.30382215 52.69948254 -27 49 C-27.5775 47.865625 -28.155 46.73125 -28.75 45.5625 C-32.19654956 35.73983376 -28.43347599 27.30717241 -25 18 C-24.34 18 -23.68 18 -23 18 C-22.835 17.319375 -22.67 16.63875 -22.5 15.9375 C-19.08898361 9.2575929 -12.79187872 5.51485434 -6.078125 2.62890625 C-4 2 -4 2 0 2 C0 1.34 0 0.68 0 0 Z M-20 16 C-22.54514483 19.66311254 -22.54514483 19.66311254 -23 24 C-23.66 24 -24.32 24 -25 24 C-26.2062252 27.61867559 -26.10816918 30.92506251 -26.0625 34.6875 C-26.05798828 35.38939453 -26.05347656 36.09128906 -26.04882812 36.81445312 C-26.03706927 38.54300538 -26.01913454 40.27151365 -26 42 C-23.75106046 42.10823773 -21.50062425 42.18569645 -19.25 42.25 C-17.37054687 42.31960937 -17.37054687 42.31960937 -15.453125 42.390625 C-12.04198888 42.29310501 -12.04198888 42.29310501 -9.921875 40.484375 C-8.0362507 38.14838909 -8.0362507 38.14838909 -6.82803345 36.0425415 C-3.25249942 30.44779866 -3.25249942 30.44779866 0.08154297 29.25579834 C2.53011695 28.98005743 4.87257947 28.94332851 7.3359375 29 C8.21528961 28.98912354 9.09464172 28.97824707 10.00064087 28.96704102 C12.79335478 28.94096497 15.58238598 28.96967166 18.375 29 C20.27475848 28.9919049 22.17450529 28.98022472 24.07421875 28.96484375 C28.71703722 28.93505192 33.357335 28.95436561 38 29 C38 28.34 38 27.68 38 27 C37.34 27 36.68 27 36 27 C35.87625 25.9275 35.7525 24.855 35.625 23.75 C35.10356064 20.62136385 34.59911746 18.66519576 33 16 C32.34 16 31.68 16 31 16 C30.77957031 15.41605469 30.55914062 14.83210938 30.33203125 14.23046875 C28.58236304 11.30067242 26.57221865 10.11203355 23.6875 8.3125 C22.74261719 7.71050781 21.79773437 7.10851562 20.82421875 6.48828125 C6.84680956 -0.87740741 -10.06127778 4.98682132 -20 16 Z M14 35 C13.34 37.31 12.68 39.62 12 42 C18.6 42 25.2 42 32 42 C32.33 41.34 32.66 40.68 33 40 C31.02 40 29.04 40 27 40 C27 39.01 27 38.02 27 37 C29.64 37 32.28 37 35 37 C34.67 39.31 34.34 41.62 34 44 C29.92469533 43.8816491 25.84961765 43.75739376 21.7746582 43.62768555 C20.38864017 43.58439782 19.00257094 43.54271836 17.61645508 43.50268555 C15.62308202 43.44483416 13.62989435 43.38070224 11.63671875 43.31640625 C9.83787231 43.26141968 9.83787231 43.26141968 8.00268555 43.20532227 C5 43 5 43 2 42 C1.01 42.495 1.01 42.495 0 43 C-1.88472859 43.15344209 -3.77427874 43.24959571 -5.6640625 43.31640625 C-6.78554688 43.35830078 -7.90703125 43.40019531 -9.0625 43.44335938 C-10.238125 43.48267578 -11.41375 43.52199219 -12.625 43.5625 C-13.80835938 43.60568359 -14.99171875 43.64886719 -16.2109375 43.69335938 C-19.14050328 43.79967426 -22.07015588 43.90170642 -25 44 C-25 45.65 -25 47.3 -25 49 C-24.34 49 -23.68 49 -23 49 C-22.9175 49.721875 -22.835 50.44375 -22.75 51.1875 C-21.17076122 57.10964542 -15.93564174 61.57968687 -11 65 C-9.66781012 65.33787425 -8.33465337 65.67199197 -7 66 C-6.67 66.66 -6.34 67.32 -6 68 C1.59272519 69.43258966 10.52562746 70.24231176 18 68 C18 67.34 18 66.68 18 66 C18.825 65.814375 19.65 65.62875 20.5 65.4375 C26.65934513 62.90776896 32.25382543 58.17889278 35 52 C35 51.01 35 50.02 35 49 C35.66 49 36.32 49 37 49 C39.09231398 44.81537205 38 39.67855628 38 35 C30.08 35 22.16 35 14 35 Z " fill="#D0D0D0" transform="translate(34,8)"/>
<path d="M0 0 C0.66 0.33 1.32 0.66 2 1 C2.4140625 3.06640625 2.4140625 3.06640625 2.625 5.5625 C2.69976562 6.38878906 2.77453125 7.21507812 2.8515625 8.06640625 C2.90054688 8.70449219 2.94953125 9.34257813 3 10 C2.01 10 1.02 10 0 10 C0 10.66 0 11.32 0 12 C-7.59 12 -15.18 12 -23 12 C-23.33 13.98 -23.66 15.96 -24 18 C-24.33 18.66 -24.66 19.32 -25 20 C-15.1 19.505 -15.1 19.505 -5 19 C-6.65 18.67 -8.3 18.34 -10 18 C-10 17.01 -10 16.02 -10 15 C-7.36 15 -4.72 15 -2 15 C-2.33 17.31 -2.66 19.62 -3 22 C-7.07510438 22.0247345 -11.15017964 22.04287637 -15.2253418 22.05493164 C-16.61141725 22.05995777 -17.99748741 22.06677966 -19.38354492 22.07543945 C-21.37676715 22.08758018 -23.37002819 22.09271021 -25.36328125 22.09765625 C-26.56251221 22.10289307 -27.76174316 22.10812988 -28.99731445 22.11352539 C-32 22 -32 22 -35 21 C-37.22818441 20.93062938 -39.45834524 20.91542916 -41.6875 20.9375 C-42.86699219 20.94652344 -44.04648437 20.95554687 -45.26171875 20.96484375 C-46.61716797 20.98224609 -46.61716797 20.98224609 -48 21 C-47.26043955 19.41176362 -46.50784063 17.82959553 -45.75 16.25 C-45.12351562 14.92742188 -45.12351562 14.92742188 -44.484375 13.578125 C-42.81195295 10.67339197 -41.69509028 9.02609624 -39 7 C-35.9497896 6.44348788 -32.95090149 6.53466524 -29.859375 6.609375 C-28.97719299 6.61503479 -28.09501099 6.62069458 -27.18609619 6.62652588 C-24.37350787 6.64888409 -21.56220205 6.69907868 -18.75 6.75 C-16.84116426 6.77006575 -14.93230851 6.78831639 -13.0234375 6.8046875 C-8.34846555 6.848747 -3.67445008 6.91777016 1 7 C0.505 3.535 0.505 3.535 0 0 Z " fill="#CBCBCB" transform="translate(71,30)"/>
<path d="M0 0 C0.33 0 0.66 0 1 0 C2.44987304 7.06813109 2.44987304 13.93186891 1 21 C0.34 21 -0.32 21 -1 21 C-1.020625 21.804375 -1.04125 22.60875 -1.0625 23.4375 C-3.18852182 31.51638291 -9.91839737 37.8487157 -17 42 C-17.66 42 -18.32 42 -19 42 C-19 42.66 -19 43.32 -19 44 C-28.07749142 46.84784044 -37.99769746 47.42087497 -47 44 C-48.216875 43.566875 -49.43375 43.13375 -50.6875 42.6875 C-54.24304095 40.87618669 -55.89817613 39.36291819 -58 36 C-58 35.01 -58 34.02 -58 33 C-55 34 -55 34 -53.125 35.9375 C-50.84760538 38.14791243 -48.98291902 39.00569366 -46 40 C-46 40.66 -46 41.32 -46 42 C-38.08 42 -30.16 42 -22 42 C-22 41.34 -22 40.68 -22 40 C-21.154375 39.62875 -20.30875 39.2575 -19.4375 38.875 C-12.10683799 34.87645709 -8.30124723 30.65889358 -5 23 C-4.34 23 -3.68 23 -3 23 C-2.67 18.38 -2.34 13.76 -2 9 C-9.92 9 -17.84 9 -26 9 C-26 8.67 -26 8.34 -26 8 C-18.41 8 -10.82 8 -3 8 C-3 7.34 -3 6.68 -3 6 C-2.01 6 -1.02 6 0 6 C0 4.02 0 2.04 0 0 Z " fill="#B5B5B5" transform="translate(74,34)"/>
<path d="M0 0 C7.92 0 15.84 0 24 0 C24 3.96 24 7.92 24 12 C23.34 10.68 22.68 9.36 22 8 C21.34 8 20.68 8 20 8 C20.33 6.02 20.66 4.04 21 2 C18.36 2 15.72 2 13 2 C13 2.99 13 3.98 13 5 C14.98 5 16.96 5 19 5 C18.67 5.66 18.34 6.32 18 7 C11.4 7 4.8 7 -2 7 C-1.34 4.69 -0.68 2.38 0 0 Z " fill="#0F0F0F" transform="translate(48,43)"/>
<path d="M0 0 C-0.61378118 4.91024946 -2.72483706 8.66985117 -5 13 C-9.29 13 -13.58 13 -18 13 C-13.78059072 3.71729958 -13.78059072 3.71729958 -10.6875 0.875 C-6.97803956 -0.33273131 -3.89331373 -0.19796511 0 0 Z " fill="#F2F2F2" transform="translate(41,38)"/>
<path d="M0 0 C7.59762024 -0.38999191 13.84466021 0.39241413 21 3 C21 3.66 21 4.32 21 5 C21.66 5.185625 22.32 5.37125 23 5.5625 C29.28062456 8.57196593 34.87923309 13.75846617 38 20 C38.25 23.875 38.25 23.875 38 27 C37.34 27 36.68 27 36 27 C35.01 23.37 34.02 19.74 33 16 C32.34 16 31.68 16 31 16 C29.84957029 14.81573412 28.69992631 13.6306927 27.5546875 12.44140625 C20.6805456 6.06814404 14.50982879 4.85475528 5.3125 5.125 C4.63638672 5.15464844 3.96027344 5.18429688 3.26367188 5.21484375 C1.30078125 5.2578125 1.30078125 5.2578125 -2 5 C-2.66 4.01 -3.32 3.02 -4 2 C-2.68 2 -1.36 2 0 2 C0 1.34 0 0.68 0 0 Z " fill="#C7C7C7" transform="translate(34,8)"/>
<path d="M0 0 C0.33 0 0.66 0 1 0 C2.44987304 7.06813109 2.44987304 13.93186891 1 21 C0.34 21 -0.32 21 -1 21 C-1.020625 21.804375 -1.04125 22.60875 -1.0625 23.4375 C-2.78921251 29.99900752 -7.48529787 35.16527335 -13 39 C-13.66 38.67 -14.32 38.34 -15 38 C-14.44570313 37.33613281 -13.89140625 36.67226562 -13.3203125 35.98828125 C-12.59585938 35.10527344 -11.87140625 34.22226563 -11.125 33.3125 C-10.40570313 32.44238281 -9.68640625 31.57226562 -8.9453125 30.67578125 C-7.11067624 28.1522354 -6.00532771 25.93661514 -5 23 C-4.34 23 -3.68 23 -3 23 C-2.67 18.38 -2.34 13.76 -2 9 C-9.92 9 -17.84 9 -26 9 C-26 8.67 -26 8.34 -26 8 C-18.41 8 -10.82 8 -3 8 C-3 7.34 -3 6.68 -3 6 C-2.01 6 -1.02 6 0 6 C0 4.02 0 2.04 0 0 Z " fill="#C3C3C3" transform="translate(74,34)"/>
<path d="M0 0 C0.66 0 1.32 0 2 0 C2 0.66 2 1.32 2 2 C9.92 1.505 9.92 1.505 18 1 C18 1.33 18 1.66 18 2 C21.3 2.33 24.6 2.66 28 3 C28 3.33 28 3.66 28 4 C19.75 4 11.5 4 3 4 C3 5.65 3 7.3 3 9 C3.66 9 4.32 9 5 9 C5.433125 9.886875 5.86625 10.77375 6.3125 11.6875 C7.91395764 14.96134407 7.91395764 14.96134407 9.75 17.75 C10.1625 18.4925 10.575 19.235 11 20 C10.67 20.66 10.34 21.32 10 22 C3.54781248 16.2647222 0.71857995 10.30453019 0.078125 1.6875 C0.05234375 1.130625 0.0265625 0.57375 0 0 Z " fill="#CBCBCB" transform="translate(6,48)"/>
<path d="M0 0 C0.33 0.99 0.66 1.98 1 3 C0.67 3.66 0.34 4.32 0 5 C9.9 4.505 9.9 4.505 20 4 C17.525 3.505 17.525 3.505 15 3 C15 2.01 15 1.02 15 0 C17.64 0 20.28 0 23 0 C22.67 2.31 22.34 4.62 22 7 C12.43 7 2.86 7 -7 7 C-7 6.67 -7 6.34 -7 6 C-5.02 6 -3.04 6 -1 6 C-0.67 4.02 -0.34 2.04 0 0 Z " fill="#BFBFBF" transform="translate(46,45)"/>
<path d="M0 0 C7.59762024 -0.38999191 13.84466021 0.39241413 21 3 C16.49169512 4.24128746 12.02545036 4.4654202 7.375 4.75 C6.06789063 4.85248047 6.06789063 4.85248047 4.734375 4.95703125 C3.90164062 5.00730469 3.06890625 5.05757812 2.2109375 5.109375 C1.45087402 5.16061523 0.69081055 5.21185547 -0.09228516 5.26464844 C-0.72183105 5.17731445 -1.35137695 5.08998047 -2 5 C-2.66 4.01 -3.32 3.02 -4 2 C-2.68 2 -1.36 2 0 2 C0 1.34 0 0.68 0 0 Z " fill="#A2A2A2" transform="translate(34,8)"/>
<path d="M0 0 C0.33 0 0.66 0 1 0 C2.03590199 5.05002222 2.10251672 9.87416389 2 15 C1.67 15 1.34 15 1 15 C1 12.69 1 10.38 1 8 C0.34 8 -0.32 8 -1 8 C-1 10.31 -1 12.62 -1 15 C-1.33 15 -1.66 15 -2 15 C-2 13.02 -2 11.04 -2 9 C-9.92 9 -17.84 9 -26 9 C-26 8.67 -26 8.34 -26 8 C-18.41 8 -10.82 8 -3 8 C-3 7.34 -3 6.68 -3 6 C-2.01 6 -1.02 6 0 6 C0 4.02 0 2.04 0 0 Z " fill="#656565" transform="translate(74,34)"/>
<path d="M0 0 C1.32 0 2.64 0 4 0 C3.34 2.97 2.68 5.94 2 9 C0.02 9 -1.96 9 -4 9 C-3.67 7.02 -3.34 5.04 -3 3 C-2.34 3 -1.68 3 -1 3 C-0.67 2.01 -0.34 1.02 0 0 Z " fill="#F8F8F8" transform="translate(43,42)"/>
<path d="M0 0 C1.485 0.99 1.485 0.99 3 2 C3.40843923 4.71203652 3.13336867 7.2437142 3 10 C2.34 10 1.68 10 1 10 C0.67 11.32 0.34 12.64 0 14 C-1.17635297 11.64729407 -1.13359359 10.179248 -1.125 7.5625 C-1.12757812 6.78003906 -1.13015625 5.99757813 -1.1328125 5.19140625 C-1 3 -1 3 0 0 Z " fill="#ADADAD" transform="translate(5,38)"/>
<path d="M0 0 C0 0.66 0 1.32 0 2 C-1.32 2 -2.64 2 -4 2 C-4.33 3.32 -4.66 4.64 -5 6 C-5.66 6 -6.32 6 -7 6 C-7.33 7.98 -7.66 9.96 -8 12 C-8.99 11.34 -9.98 10.68 -11 10 C-10.43224464 8.70141061 -9.84508337 7.41129559 -9.25 6.125 C-8.92515625 5.40570313 -8.6003125 4.68640625 -8.265625 3.9453125 C-6.09670266 0.61159853 -3.87970054 0 0 0 Z " fill="#8F8F8F" transform="translate(47,39)"/>
<path d="M0 0 C-1.95585325 1.00484204 -3.91476237 2.00373805 -5.875 3 C-6.96554688 3.556875 -8.05609375 4.11375 -9.1796875 4.6875 C-12 6 -12 6 -14 6 C-13.5 4.1875 -13.5 4.1875 -12 2 C-7.87630888 -0.25258898 -4.57219641 -1.50697954 0 0 Z " fill="#CFCFCF" transform="translate(33,12)"/>
<path d="M0 0 C6.64584719 0.34978143 9.83664827 1.80477672 15 6 C14.01 6.33 13.02 6.66 12 7 C10.24583035 6.02546131 8.4939281 5.04429756 6.78515625 3.9921875 C4.57788889 2.7653912 2.49583139 2.30252502 0 2 C0 1.34 0 0.68 0 0 Z " fill="#D0D0D0" transform="translate(47,11)"/>
<path d="M0 0 C3 1 3 1 4.875 2.9375 C7.15239462 5.14791243 9.01708098 6.00569366 12 7 C9.12529507 8.43735246 7.18105412 8.38172649 4 8 C1.625 5.6875 1.625 5.6875 0 3 C0 2.01 0 1.02 0 0 Z " fill="#A7A7A7" transform="translate(16,67)"/>
<path d="M0 0 C2.64 0 5.28 0 8 0 C7.67 2.31 7.34 4.62 7 7 C6.34 6.01 5.68 5.02 5 4 C2.43717258 3.27034634 2.43717258 3.27034634 0 3 C0 2.01 0 1.02 0 0 Z " fill="#AFAFAF" transform="translate(61,45)"/>
<path d="M0 0 C0.66 0.33 1.32 0.66 2 1 C1.1875 2.9375 1.1875 2.9375 0 5 C-3 6 -3 6 -5.1875 5.0625 C-5.785625 4.711875 -6.38375 4.36125 -7 4 C-6.030625 3.525625 -5.06125 3.05125 -4.0625 2.5625 C-1.19522563 1.29806053 -1.19522563 1.29806053 0 0 Z " fill="#A5A5A5" transform="translate(59,70)"/>
<path d="M0 0 C1.48117801 0.28127421 2.95993249 0.57533732 4.4375 0.875 C5.67306641 1.11863281 5.67306641 1.11863281 6.93359375 1.3671875 C7.61550781 1.57601562 8.29742187 1.78484375 9 2 C9.33 2.66 9.66 3.32 10 4 C2.25 3.125 2.25 3.125 0 2 C0 1.34 0 0.68 0 0 Z " fill="#DADADA" transform="translate(23,74)"/>
<path d="M0 0 C0.33 0 0.66 0 1 0 C2.03590199 5.05002222 2.10251672 9.87416389 2 15 C1.67 15 1.34 15 1 15 C1 12.69 1 10.38 1 8 C0.34 8 -0.32 8 -1 8 C-0.67 5.36 -0.34 2.72 0 0 Z " fill="#848484" transform="translate(74,34)"/>
<path d="M0 0 C0.66 0 1.32 0 2 0 C1.45276317 3.37462715 0.9451 5.08235 -1 8 C-2.0625 6.125 -2.0625 6.125 -3 4 C-2.67 3.34 -2.34 2.68 -2 2 C-1.34 2 -0.68 2 0 2 C0 1.34 0 0.68 0 0 Z " fill="#B7B7B7" transform="translate(11,24)"/>
<path d="M0 0 C1.5 1.0625 1.5 1.0625 3 3 C3.1875 6.6875 3.1875 6.6875 3 10 C2.34 8.68 1.68 7.36 1 6 C0.34 6 -0.32 6 -1 6 C-0.67 4.02 -0.34 2.04 0 0 Z " fill="#2B2B2B" transform="translate(69,45)"/>
<path d="M0 0 C3 3 3 3 3.1875 6.6875 C3.125625 7.780625 3.06375 8.87375 3 10 C2.34 10 1.68 10 1 10 C0.67 6.7 0.34 3.4 0 0 Z " fill="#969696" transform="translate(69,25)"/>
</svg>
